<mxfile host="Electron" modified="2024-04-22T10:23:12.649Z" agent="Mozilla/5.0 (X11; Linux x86_64) AppleWebKit/537.36 (KHTML, like Gecko) draw.io/24.2.5 Chrome/120.0.6099.109 Electron/28.1.0 Safari/537.36" etag="HwmaWpHAXgbIFmIqE3Zj" version="24.2.5" type="device">
  <diagram name="Page-1" id="8kfx2Spz5ayO2THmzasY">
    <mxGraphModel dx="1234" dy="1230" grid="1" gridSize="10" guides="1" tooltips="1" connect="1" arrows="1" fold="1" page="1" pageScale="1" pageWidth="827" pageHeight="1169" math="0" shadow="0">
      <root>
        <mxCell id="0" />
        <mxCell id="1" parent="0" />
        <mxCell id="qLBhzHUplsTjAalFB9cu-4" value="" style="edgeStyle=orthogonalEdgeStyle;rounded=0;orthogonalLoop=1;jettySize=auto;html=1;" edge="1" parent="1" source="qLBhzHUplsTjAalFB9cu-1" target="qLBhzHUplsTjAalFB9cu-2">
          <mxGeometry relative="1" as="geometry" />
        </mxCell>
        <mxCell id="qLBhzHUplsTjAalFB9cu-1" value="XXX-insights-rules-results" style="sketch=0;points=[[0,0,0],[0.25,0,0],[0.5,0,0],[0.75,0,0],[1,0,0],[0,1,0],[0.25,1,0],[0.5,1,0],[0.75,1,0],[1,1,0],[0,0.25,0],[0,0.5,0],[0,0.75,0],[1,0.25,0],[1,0.5,0],[1,0.75,0]];outlineConnect=0;fontColor=#232F3E;fillColor=#8C4FFF;strokeColor=#ffffff;dashed=0;verticalLabelPosition=bottom;verticalAlign=top;align=center;html=1;fontSize=12;fontStyle=0;aspect=fixed;shape=mxgraph.aws4.resourceIcon;resIcon=mxgraph.aws4.managed_streaming_for_kafka;" vertex="1" parent="1">
          <mxGeometry x="80" y="190" width="78" height="78" as="geometry" />
        </mxCell>
        <mxCell id="qLBhzHUplsTjAalFB9cu-5" value="" style="edgeStyle=orthogonalEdgeStyle;rounded=0;orthogonalLoop=1;jettySize=auto;html=1;" edge="1" parent="1" source="qLBhzHUplsTjAalFB9cu-2" target="qLBhzHUplsTjAalFB9cu-3">
          <mxGeometry relative="1" as="geometry" />
        </mxCell>
        <mxCell id="qLBhzHUplsTjAalFB9cu-2" value="parquet-factory" style="rounded=0;whiteSpace=wrap;html=1;" vertex="1" parent="1">
          <mxGeometry x="250" y="199" width="120" height="60" as="geometry" />
        </mxCell>
        <mxCell id="qLBhzHUplsTjAalFB9cu-3" value="S3 Ceph bucket" style="sketch=0;outlineConnect=0;fontColor=#232F3E;gradientColor=none;fillColor=#7AA116;strokeColor=none;dashed=0;verticalLabelPosition=bottom;verticalAlign=top;align=center;html=1;fontSize=12;fontStyle=0;aspect=fixed;pointerEvents=1;shape=mxgraph.aws4.bucket_with_objects;" vertex="1" parent="1">
          <mxGeometry x="460" y="190" width="75" height="78" as="geometry" />
        </mxCell>
      </root>
    </mxGraphModel>
  </diagram>
</mxfile>
